<?xml version="1.0" encoding="UTF-8" standalone="no"?>
<svg width="66px" height="78px" viewBox="0 0 66 78" version="1.1" xmlns="http://www.w3.org/2000/svg" xmlns:xlink="http://www.w3.org/1999/xlink" xmlns:sketch="http://www.bohemiancoding.com/sketch/ns">
    <!-- Generator: Sketch 3.3.3 (12072) - http://www.bohemiancoding.com/sketch -->
    <title>Group</title>
    <desc>Created with Sketch.</desc>
    <defs></defs>
    <g id="Page-1" stroke="none" stroke-width="1" fill="none" fill-rule="evenodd" sketch:type="MSPage">
        <g id="noun_93679_cc" sketch:type="MSLayerGroup" fill="#B71C1C">
            <g id="Group" sketch:type="MSShapeGroup">
                <path d="M0.958,4.516 C1.074,6.311 2.072,7.041 5.244,7.466 C8.416,7.891 12.698,10.454 17.099,16.136 C17.479,16.598 17.87,17.06 18.311,17.462 C19.522,18.565 21.534,18.539 22.728,17.439 C24.083,16.19 24.179,14.494 23.227,13 C17.333,3.75 9.541,0.334 4.125,0.704 C2.21,0.834 0.611,2.664 0.958,4.516 L0.958,4.516 Z" id="Shape"></path>
                <path d="M16.854,41.038 C12.325,41.872 9.249,46.492 10.202,51.026 C11.25,56.012 15.693,58.713 20.239,57.793 C24.673,56.895 27.761,52.826 26.896,47.774 C26.127,43.285 21.401,40.013 16.854,41.038 L16.854,41.038 Z" id="Shape"></path>
                <path d="M28.887,40.275 C29.978,45.045 34.159,48.054 39.019,46.99 C44.09,45.88 46.553,41.644 45.647,36.952 C44.734,32.221 40.581,29.471 35.766,30.269 C30.903,31.074 28.053,35.644 28.887,40.275 L28.887,40.275 Z" id="Shape"></path>
                <path d="M38.184,26.212 C43.382,25.139 45.881,20.57 44.924,16.097 C43.994,11.754 40.122,8.698 34.969,9.556 C30.346,10.325 27.268,15.115 28.178,19.586 C29.078,23.999 33.71,27.259 38.184,26.212 L38.184,26.212 Z" id="Shape"></path>
                <path d="M48.445,50.348 C49.141,54.922 53.888,57.97 58.486,56.978 C63.195,55.962 65.905,51.341 65.065,47.03 C64.146,42.316 59.425,39.355 54.875,40.333 C50.799,41.208 47.277,45.571 48.445,50.348 L48.445,50.348 Z" id="Shape"></path>
                <path d="M18.895,37.803 C23.152,37.07 26.572,32.29 25.489,27.603 C24.579,23.668 20.601,19.988 15.396,21.148 C10.24,22.297 7.824,26.601 8.817,31.314 C9.785,35.913 14.093,38.741 18.895,37.803 L18.895,37.803 Z" id="Shape"></path>
                <path d="M47.743,29.518 C48.234,34.102 53.439,37.188 57.747,36.301 C61.972,35.431 65.374,30.663 64.332,26.103 C63.304,21.6 58.946,18.62 54.34,19.5 C50.094,20.311 46.483,24.691 47.743,29.518 L47.743,29.518 Z" id="Shape"></path>
                <path d="M49.122,71.185 C50.024,75.951 54.812,78.708 59.235,77.787 C63.725,76.852 66.647,72.274 65.746,67.752 C64.812,63.059 60.369,60.05 55.556,61.105 C51.067,62.09 48.084,66.369 49.122,71.185 L49.122,71.185 Z" id="Shape"></path>
                <path d="M36.248,51.162 C31.447,51.962 28.727,56.687 29.613,61.114 C30.543,65.763 35.208,68.652 39.654,67.76 C44.308,66.826 47.229,62.228 46.355,57.727 C45.557,53.614 41.217,49.867 36.248,51.162 L36.248,51.162 Z" id="Shape"></path>
            </g>
        </g>
    </g>
</svg>