<?xml version="1.0" encoding="UTF-8" standalone="no"?>
<svg width="73px" height="53px" viewBox="0 0 73 53" version="1.1" xmlns="http://www.w3.org/2000/svg" xmlns:xlink="http://www.w3.org/1999/xlink" xmlns:sketch="http://www.bohemiancoding.com/sketch/ns">
    <!-- Generator: Sketch 3.3.3 (12072) - http://www.bohemiancoding.com/sketch -->
    <title>Shape</title>
    <desc>Created with Sketch.</desc>
    <defs></defs>
    <g id="Page-1" stroke="none" stroke-width="1" fill="none" fill-rule="evenodd" sketch:type="MSPage">
        <g id="noun_135770_cc" sketch:type="MSLayerGroup" fill="#2196F3">
            <path d="M11.533,52.281 L11.527,52.281 C7.799,52.278 4.23,49.918 0.918,45.265 C0.01,43.99 0.308,42.219 1.583,41.311 C2.858,40.405 4.628,40.702 5.536,41.976 C7.041,44.09 9.303,46.61 11.531,46.612 L11.533,46.612 C13.763,46.612 16.032,44.092 17.543,41.977 C17.544,41.976 17.545,41.974 17.546,41.973 C20.87,37.319 24.446,34.958 28.176,34.958 L28.181,34.958 C31.886,34.961 35.435,37.291 38.732,41.886 C38.755,41.915 38.777,41.946 38.799,41.976 C40.304,44.09 42.566,46.61 44.796,46.612 L44.798,46.612 C47.03,46.612 49.299,44.09 50.811,41.973 C50.812,41.972 50.813,41.97 50.814,41.968 C54.141,37.318 57.717,34.958 61.443,34.958 L61.453,34.958 C65.18,34.963 68.747,37.324 72.058,41.977 C72.965,43.252 72.667,45.022 71.392,45.93 C70.119,46.835 68.347,46.541 67.439,45.264 C65.935,43.151 63.674,40.63 61.447,40.628 L61.443,40.628 C59.212,40.628 56.94,43.149 55.425,45.267 C55.425,45.267 55.425,45.267 55.424,45.268 C52.102,49.921 48.527,52.281 44.798,52.281 L44.792,52.281 C41.088,52.279 37.541,49.949 34.246,45.355 C34.223,45.326 34.201,45.295 34.179,45.265 C32.673,43.151 30.41,40.629 28.179,40.628 L28.177,40.628 C25.943,40.628 23.672,43.15 22.16,45.268 C22.159,45.27 22.158,45.271 22.157,45.273 C18.833,49.924 15.26,52.281 11.533,52.281 L11.533,52.281 Z M11.533,35.023 L11.527,35.023 C7.799,35.02 4.23,32.66 0.918,28.006 C0.01,26.731 0.308,24.961 1.583,24.053 C2.858,23.144 4.628,23.443 5.536,24.718 C7.041,26.832 9.303,29.352 11.531,29.353 L11.533,29.353 C13.764,29.353 16.034,26.831 17.546,24.714 C17.546,24.713 17.547,24.712 17.548,24.711 C20.871,20.059 24.446,17.7 28.175,17.7 L28.18,17.7 C31.885,17.702 35.434,20.033 38.731,24.628 C38.754,24.658 38.776,24.688 38.798,24.718 C40.303,26.832 42.565,29.352 44.795,29.353 L44.797,29.353 C47.029,29.353 49.298,26.831 50.81,24.715 C50.811,24.713 50.812,24.712 50.813,24.71 C54.14,20.059 57.716,17.7 61.442,17.7 L61.452,17.7 C65.179,17.704 68.746,20.066 72.057,24.719 C72.964,25.994 72.666,27.764 71.391,28.672 C70.118,29.578 68.346,29.282 67.438,28.006 C65.934,25.892 63.673,23.372 61.446,23.37 L61.442,23.37 C59.211,23.37 56.939,25.891 55.424,28.009 C55.424,28.009 55.424,28.009 55.423,28.009 C52.101,32.663 48.526,35.023 44.797,35.023 L44.791,35.023 C41.087,35.021 37.54,32.691 34.245,28.097 C34.222,28.067 34.2,28.037 34.178,28.007 C32.672,25.892 30.409,23.371 28.178,23.37 L28.176,23.37 C25.943,23.37 23.674,25.89 22.162,28.006 C22.161,28.007 22.16,28.008 22.159,28.01 C18.836,32.664 15.261,35.023 11.533,35.023 L11.533,35.023 Z M11.533,17.765 L11.527,17.765 C7.799,17.763 4.23,15.402 0.918,10.749 C0.01,9.474 0.308,7.704 1.583,6.796 C2.858,5.888 4.628,6.186 5.536,7.461 C7.041,9.575 9.303,12.094 11.531,12.096 L11.533,12.096 C13.762,12.096 16.031,9.578 17.542,7.463 C17.543,7.461 17.544,7.46 17.545,7.458 C20.869,2.803 24.445,0.442 28.175,0.442 L28.18,0.442 C31.885,0.444 35.434,2.775 38.731,7.37 C38.754,7.4 38.776,7.43 38.798,7.46 C40.303,9.573 42.565,12.093 44.795,12.095 L44.797,12.095 C47.028,12.095 49.297,9.575 50.808,7.459 C50.809,7.458 50.81,7.457 50.811,7.456 C54.138,2.802 57.715,0.442 61.442,0.442 L61.452,0.442 C65.179,0.446 68.746,2.808 72.057,7.461 C72.964,8.737 72.666,10.506 71.391,11.414 C70.115,12.321 68.346,12.024 67.438,10.748 C65.934,8.634 63.673,6.114 61.446,6.111 L61.442,6.111 C59.211,6.111 56.937,8.635 55.422,10.753 C55.421,10.754 55.42,10.756 55.419,10.757 C52.098,15.406 48.523,17.764 44.797,17.764 L44.791,17.764 C41.087,17.762 37.54,15.431 34.245,10.838 C34.222,10.808 34.2,10.778 34.178,10.748 C32.672,8.633 30.408,6.112 28.178,6.111 L28.176,6.111 C25.942,6.111 23.672,8.634 22.16,10.751 C22.159,10.752 22.159,10.753 22.158,10.754 C18.835,15.406 15.26,17.765 11.533,17.765 L11.533,17.765 Z" id="Shape" sketch:type="MSShapeGroup"></path>
        </g>
    </g>
</svg>